<?xml version="1.0" encoding="UTF-8"?>
<svg id="logo-fond-sombre_-_copie" data-name="logo-fond-sombre - copie" xmlns="http://www.w3.org/2000/svg" viewBox="0 0 120.27 134.98">
  <defs>
    <style>
      .cls-1 {
        font-family: RetroGaming, 'Retro Gaming';
        font-size: 21px;
      }

      .cls-2, .cls-3 {
        fill: #343434;
      }

      .cls-4 {
        fill: #fefffe;
      }

      .cls-4, .cls-5 {
        stroke: #f7fff7;
        stroke-linecap: round;
        stroke-miterlimit: 10;
        stroke-width: 5px;
      }

      .cls-3 {
        fill-rule: evenodd;
      }

      .cls-6 {
        letter-spacing: -.07em;
      }

      .cls-6, .cls-7 {
        fill: #028090;
      }

      .cls-8 {
        fill: #fcba04;
      }

      .cls-5 {
        fill: #f7fff7;
      }

      .cls-9 {
        fill: #ff931e;
        letter-spacing: -.08em;
      }
    </style>
  </defs>
  <g id="Logo_titre_-_copie" data-name="Logo_titre - copie">
    <text class="cls-1" transform="translate(0 129.25)"><tspan class="cls-9" x="0" y="0">Retro </tspan><tspan class="cls-6" x="73.59" y="0">Dev</tspan></text>
  </g>
  <g id="Logo-image_-_copie" data-name="Logo-image - copie">
    <g id="socle_-_copie" data-name="socle - copie">
      <g>
        <line class="cls-4" x1="31.06" y1="102.02" x2="91.06" y2="102.02"/>
        <line class="cls-5" x1="40.29" y1="94.48" x2="81.83" y2="94.48"/>
      </g>
    </g>
    <g>
      <path class="cls-8" d="M6.31,34.01c0,2.47,.35,4.86,.7,7.34s.7,4.95,.7,7.42c0,3.09-.88,6.54-7.13,6.54v4.51c6.25,0,7.13,3.8,7.13,6.54,0,2.39-.35,4.77-.7,7.16s-.7,4.86-.7,7.25c0,8.93,5.46,12.11,12.76,12.11h1.85v-4.86h-1.58c-4.93,0-6.95-2.74-6.95-7.69,0-2.12,.26-4.15,.62-6.36,.35-2.12,.62-4.33,.62-6.72,.09-5.66-2.38-8.66-6.34-9.63v-.18c3.96-1.06,6.42-3.89,6.34-9.54,0-2.39-.26-4.51-.62-6.72-.35-2.12-.62-4.24-.62-6.27,0-4.77,1.76-7.6,6.95-7.6h1.58v-4.86h-1.85c-7.48,0-12.76,3.45-12.76,11.58Z"/>
      <path class="cls-8" d="M113.14,48.77c0-2.47,.35-4.95,.7-7.42s.7-4.86,.7-7.34c0-8.13-5.37-11.58-12.85-11.58h-1.76v4.86h1.58c5.1,.09,6.95,2.83,6.95,7.6,0,2.03-.35,4.15-.62,6.27-.35,2.21-.7,4.33-.7,6.72,0,5.66,2.46,8.48,6.34,9.54v.18c-3.87,.97-6.34,3.98-6.34,9.63,0,2.39,.35,4.6,.7,6.72,.26,2.21,.62,4.24,.62,6.36,0,4.95-2.11,7.6-7.04,7.69h-1.5v4.86h1.85c7.22,0,12.76-3.18,12.76-12.11,0-2.39-.35-4.86-.7-7.25s-.7-4.77-.7-7.16c0-2.74,.88-6.54,7.13-6.54v-4.51c-6.25,0-7.13-3.45-7.13-6.54Z"/>
    </g>
    <g id="ecran_-_copie_2" data-name="ecran - copie 2">
      <g>
        <path class="cls-7" d="M55.87,27h-15v14h15v-14Zm51.29,20.89c0-2.39,.35-4.51,.7-6.72,.26-2.12,.62-4.24,.62-6.27,0-4.77-1.85-7.51-6.95-7.6h-1.58v-.3h-7.57v7h-10.5v-7h-8v14h9v6h-9v-6h-18v10h-15v-10H22.87v-14h-1.95v.3h-1.58c-5.19,0-6.95,2.83-6.95,7.6,0,2.03,.26,4.15,.62,6.27,.35,2.21,.62,4.33,.62,6.72,.09,5.66-2.38,8.48-6.34,9.54v.18c3.96,.97,6.42,3.98,6.34,9.63,0,2.39-.26,4.6-.62,6.72-.35,2.21-.62,4.24-.62,6.36,0,4.82,1.93,7.53,6.57,7.67H101.7c4.74-.18,6.78-2.82,6.78-7.67,0-2.12-.35-4.15-.62-6.36-.35-2.12-.7-4.33-.7-6.72,0-5.66,2.46-8.66,6.34-9.63v-.18c-3.87-1.06-6.34-3.89-6.34-9.54Z"/>
        <rect class="cls-7" x="56.87" y="8" width="16" height="14"/>
        <rect class="cls-7" x="82.87" y="15" width="9" height="8"/>
        <rect class="cls-7" x="76.87" width="7" height="7"/>
        <rect class="cls-7" x="26.87" y="25" width="10" height="10"/>
      </g>
    </g>
    <path id="alien1" class="cls-3" d="M44.5,71.13v2.37h2.38v-2.38h-2.38Zm-9.5,0v2.37h2.38v-2.38h-2.38Zm0,9.5h4.75v2.38h-4.75v-2.38Zm11.88,0v2.38h-4.75v-2.38h4.75Zm0-14.25v-2.38h2.38v2.38h-2.38Zm-11.88,0h2.38v2.38h7.12v-2.38h2.38v2.38h2.38v2.38h2.38v2.38h2.38v7.12h-2.38v-4.75h-2.38v4.75h-2.38v-2.38h-11.88v2.38h-2.38v-4.75h-2.38v4.75h-2.38v-7.12h2.38v-2.38h2.38v-2.38h2.38v-2.38Zm-2.38-2.38h2.38v2.38h-2.38v-2.38Z"/>
    <path id="alien2" class="cls-2" d="M80.87,50.2v2.38h-5.22v2.3h-1.72v7.08h20.95v-7.08h-1.78v-2.3h-5.16v-2.38h-7.06Zm-1.72,7.16h3.44v2.3h-3.44v-2.3Zm7.06,0h3.44v2.3h-3.44v-2.3Zm-7.07,4.49v2.5h-1.78v2.3h-3.44v2.39h3.5v-2.31h3.44v-2.38h1.78v-2.5h-3.5Zm3.5,2.5v2.38h3.5v-2.38h-3.5Zm3.5,0h1.72v2.3h3.5v-2.38h-1.72v-2.42h-3.5v2.5Zm5.22,2.3v2.39h3.5v-2.39h-3.5Z"/>
  </g>
</svg>