<?xml version="1.0" encoding="UTF-8"?>
<svg id="Calque_2" data-name="Calque 2" xmlns="http://www.w3.org/2000/svg" viewBox="0 0 119.68 129.25">
  <g id="logo-fond-sombre">
    <g id="Logo_titre_-_copie" data-name="Logo_titre - copie">
      <g>
        <path d="m1.31,129.25v-15.27h11.45v1.91h1.91v3.82h-1.91v1.91h1.91v7.63h-3.81v-7.63h-5.73v7.63H1.31Zm9.55-9.54v-3.82h-5.73v3.82h5.73Z" style="fill: #fcba04;"/>
        <path d="m17.87,129.25v-1.91h-1.91v-5.73h1.91v-1.91h9.55v1.91h1.91v3.82h-9.54v1.91h7.63v1.91h-9.55Zm7.64-5.73v-1.91h-5.73v1.91h5.73Z" style="fill: #fcba04;"/>
        <path d="m34.44,129.25v-1.91h-1.91v-5.73h-1.91v-1.91h1.91v-5.73h3.82v5.73h3.82v1.91h-3.82v5.73h3.82v1.91h-5.73Z" style="fill: #fcba04;"/>
        <path d="m41.45,129.25v-9.54h3.82v1.91h1.91v1.91h-1.91v5.73h-3.82Zm5.73-7.63v-1.91h5.73v1.91h-5.73Z" style="fill: #fcba04;"/>
        <path d="m56.1,129.25v-1.91h-1.91v-5.73h1.91v-1.91h9.55v1.91h1.91v5.73h-1.91v1.91h-9.55Zm7.64-1.91v-5.73h-5.73v5.73h5.73Z" style="fill: #fcba04;"/>
        <path d="m74.9,129.25v-15.27h9.54v1.91h1.91v1.91h1.91v7.64h-1.91v1.91h-1.91v1.91h-9.54Zm7.63-1.91v-1.91h1.91v-7.64h-1.91v-1.91h-3.81v11.45h3.81Z" style="fill: #028090;"/>
        <path d="m91.46,129.25v-1.91h-1.91v-5.73h1.91v-1.91h9.55v1.91h1.91v3.82h-9.54v1.91h7.63v1.91h-9.55Zm7.64-5.73v-1.91h-5.73v1.91h5.73Z" style="fill: #028090;"/>
        <path d="m108.02,129.25v-1.91h-1.91v-1.91h-1.91v-5.73h3.82v5.73h1.91v1.91h1.91v-1.91h1.91v-5.73h3.81v5.73h-1.91v1.91h-1.91v1.91h-5.73Z" style="fill: #028090;"/>
      </g>
    </g>
    <g id="Logo-image_-_copie" data-name="Logo-image - copie">
      <g id="socle_-_copie" data-name="socle - copie">
        <g>
          <path d="m90.47,104.52H30.47c-1.38,0-2.5-1.12-2.5-2.5s1.12-2.5,2.5-2.5h60c1.38,0,2.5,1.12,2.5,2.5s-1.12,2.5-2.5,2.5Z" style="fill: #f7fff7;"/>
          <path d="m81.23,96.98h-41.54c-1.38,0-2.5-1.12-2.5-2.5s1.12-2.5,2.5-2.5h41.54c1.38,0,2.5,1.12,2.5,2.5s-1.12,2.5-2.5,2.5Z" style="fill: #f7fff7;"/>
        </g>
      </g>
      <g>
        <path d="m5.72,34.01c0,2.47.35,4.86.7,7.34s.7,4.95.7,7.42c0,3.09-.88,6.54-7.13,6.54v4.51c6.25,0,7.13,3.8,7.13,6.54,0,2.39-.35,4.77-.7,7.16s-.7,4.86-.7,7.25c0,8.93,5.46,12.11,12.76,12.11h1.85v-4.86h-1.58c-4.93,0-6.95-2.74-6.95-7.69,0-2.12.26-4.15.62-6.36.35-2.12.62-4.33.62-6.72.09-5.66-2.38-8.66-6.34-9.63v-.18c3.96-1.06,6.42-3.89,6.34-9.54,0-2.39-.26-4.51-.62-6.72-.35-2.12-.62-4.24-.62-6.27,0-4.77,1.76-7.6,6.95-7.6h1.58v-4.86h-1.85c-7.48,0-12.76,3.45-12.76,11.58Z" style="fill: #fcba04;"/>
        <path d="m112.55,48.77c0-2.47.35-4.95.7-7.42s.7-4.86.7-7.34c0-8.13-5.37-11.58-12.85-11.58h-1.76v4.86h1.58c5.1.09,6.95,2.83,6.95,7.6,0,2.03-.35,4.15-.62,6.27-.35,2.21-.7,4.33-.7,6.72,0,5.66,2.46,8.48,6.34,9.54v.18c-3.87.97-6.34,3.98-6.34,9.63,0,2.39.35,4.6.7,6.72.26,2.21.62,4.24.62,6.36,0,4.95-2.11,7.6-7.04,7.69h-1.5v4.86h1.85c7.22,0,12.76-3.18,12.76-12.11,0-2.39-.35-4.86-.7-7.25s-.7-4.77-.7-7.16c0-2.74.88-6.54,7.13-6.54v-4.51c-6.25,0-7.13-3.45-7.13-6.54Z" style="fill: #fcba04;"/>
      </g>
      <g id="ecran_-_copie_2" data-name="ecran - copie 2">
        <g>
          <path d="m55.28,27h-15v14h15v-14Zm51.29,20.89c0-2.39.35-4.51.7-6.72.26-2.12.62-4.24.62-6.27,0-4.77-1.85-7.51-6.95-7.6h-1.58v-.3h-7.57v7h-10.5v-7h-8v14h9v6h-9v-6h-18v10h-15v-10h-18v-14h-1.95v.3h-1.58c-5.19,0-6.95,2.83-6.95,7.6,0,2.03.26,4.15.62,6.27.35,2.21.62,4.33.62,6.72.09,5.66-2.38,8.48-6.34,9.54v.18c3.96.97,6.42,3.98,6.34,9.63,0,2.39-.26,4.6-.62,6.72-.35,2.21-.62,4.24-.62,6.36,0,4.82,1.93,7.53,6.57,7.67h82.74c4.74-.18,6.78-2.82,6.78-7.67,0-2.12-.35-4.15-.62-6.36-.35-2.12-.7-4.33-.7-6.72,0-5.66,2.46-8.66,6.34-9.63v-.18c-3.87-1.06-6.34-3.89-6.34-9.54Z" style="fill: #028090;"/>
          <rect x="56.28" y="8" width="16" height="14" style="fill: #028090;"/>
          <rect x="82.28" y="15" width="9" height="8" style="fill: #028090;"/>
          <rect x="76.28" width="7" height="7" style="fill: #028090;"/>
          <rect x="26.28" y="25" width="10" height="10" style="fill: #028090;"/>
        </g>
      </g>
      <path id="alien1" d="m43.9,71.13v2.37h2.38v-2.38h-2.38Zm-9.5,0v2.37h2.38v-2.38h-2.38Zm0,9.5h4.75v2.38h-4.75v-2.38Zm11.88,0v2.38h-4.75v-2.38h4.75Zm0-14.25v-2.38h2.38v2.38h-2.38Zm-11.88,0h2.38v2.38h7.12v-2.38h2.38v2.38h2.38v2.38h2.38v2.38h2.38v7.12h-2.38v-4.75h-2.38v4.75h-2.38v-2.38h-11.88v2.38h-2.38v-4.75h-2.38v4.75h-2.38v-7.12h2.38v-2.38h2.38v-2.38h2.38v-2.38Zm-2.38-2.38h2.38v2.38h-2.38v-2.38Z" style="fill: #343434; fill-rule: evenodd;"/>
      <path id="alien2" d="m80.27,50.2v2.38h-5.22v2.3h-1.72v7.08h20.95v-7.08h-1.78v-2.3h-5.16v-2.38h-7.06Zm-1.72,7.16h3.44v2.3h-3.44v-2.3Zm7.06,0h3.44v2.3h-3.44v-2.3Zm-7.07,4.49v2.5h-1.78v2.3h-3.44v2.39h3.5v-2.31h3.44v-2.38h1.78v-2.5h-3.5Zm3.5,2.5v2.38h3.5v-2.38h-3.5Zm3.5,0h1.72v2.3h3.5v-2.38h-1.72v-2.42h-3.5v2.5Zm5.22,2.3v2.39h3.5v-2.39h-3.5Z" style="fill: #343434;"/>
    </g>
  </g>
</svg>